PathFileType	4	(X/Y/Z)	/Users/itak/Documents/Research/Walk-IL/dataset/trc/00578_00009.trc
DataRate	CameraRate	NumFrames	NumMarkers	Units	OrigDataRate	OrigDataStartFrame	OrigNumFrames
100.000000	100.000000	4	53	mm	100.000000	323	517
Frame#	Time	RPSI			LPSI			L3			STRN			T10			C7			CLAV			RBAK			LBAK			LSHO			LUPA			LAEL			LAOL			LWTS			LWPS			LFRA			LIFD			LHPS			LHTS			RSHO			RUPA			RAEL			RAOL			RWTS			RWPS			RFRA			RIFD			RHTS			RHPS			RBHD			LFHD			RFHD			LBHD			LHIP			RHIP			RASI			LASI			LKNE			LTHI			LANK			LTIP			LTOE			LMT1			LMT5			LHEE			RKNE			RTHI			RANK			RTIP			RTOE			RMT1			RMT5			RHEE			
		X1	Y1	Z1	X2	Y2	Z2	X3	Y3	Z3	X4	Y4	Z4	X5	Y5	Z5	X6	Y6	Z6	X7	Y7	Z7	X8	Y8	Z8	X9	Y9	Z9	X10	Y10	Z10	X11	Y11	Z11	X12	Y12	Z12	X13	Y13	Z13	X14	Y14	Z14	X15	Y15	Z15	X16	Y16	Z16	X17	Y17	Z17	X18	Y18	Z18	X19	Y19	Z19	X20	Y20	Z20	X21	Y21	Z21	X22	Y22	Z22	X23	Y23	Z23	X24	Y24	Z24	X25	Y25	Z25	X26	Y26	Z26	X27	Y27	Z27	X28	Y28	Z28	X29	Y29	Z29	X30	Y30	Z30	X31	Y31	Z31	X32	Y32	Z32	X33	Y33	Z33	X34	Y34	Z34	X35	Y35	Z35	X36	Y36	Z36	X37	Y37	Z37	X38	Y38	Z38	X39	Y39	Z39	X40	Y40	Z40	X41	Y41	Z41	X42	Y42	Z42	X43	Y43	Z43	X44	Y44	Z44	X45	Y45	Z45	X46	Y46	Z46	X47	Y47	Z47	X48	Y48	Z48	X49	Y49	Z49	X50	Y50	Z50	X51	Y51	Z51	X52	Y52	Z52	X53	Y53	Z53	

324	3.23	367.8054504394531	998.36376953125	194.122802734375	269.8855590820312	1004.515502929688	102.6579666137695	321.284912109375	1101.369506835938	140.4329681396484	478.5583801269531	1288.218627929688	-39.96804046630859	316.710693359375	1226.771606445312	144.3989868164062	364.0108947753906	1500.513793945312	117.5947952270508	468.5601806640625	1400.293823242188	-24.23957061767578	380.9303283691406	1374.313354492188	225.2133483886719	270.9037780761719	1449.550170898438	82.51214599609375	271.692626953125	1475.865234375	-44.78473663330078	202.7752685546875	1352.896728515625	-93.89909362792969	198.3668670654297	1137.579833984375	-141.9221649169922	182.1450042724609	1115.642456054688	-43.95232009887695	328.327880859375	926.55712890625	-221.4724426269531	249.9016571044922	892.1574096679688	-238.5916900634766	218.5284881591797	1059.276123046875	-177.1576080322266	353.583984375	762.8176879882812	-243.7212677001953	272	836.4110107421875	-251.0384368896484	336.5158081054688	855.8587646484375	-261.1500244140625	519.018310546875	1459.697509765625	172.9829406738281	558.4827880859375	1394.045166015625	229.2746887207031	599.8329467773438	1106.109497070312	255.5834655761719	545.0892333984375	1084.916625976562	279.9241943359375	672.5899047851562	907.3111572265625	105.1900253295898	693.418212890625	878.249267578125	179.3062591552734	615.806396484375	1052.046752929688	247.6362762451172	691.748291015625	739.105224609375	76.20201110839844	710.0855102539062	821.6996459960938	82.18904876708984	709.3936157226562	807.9219360351562	154.8308715820312	477.3658142089844	1680.427612304688	95.31984710693359	452.4816284179688	1698.622192382812	-109.703742980957	561.7064819335938	1697.32568359375	-15.28718662261963	356.3870849609375	1680.35205078125	-18.7545108795166	262.418212890625	926.0137939453125	-80.70510864257812	545.00048828125	935.517822265625	177.9559783935547	556.6929931640625	970.407958984375	77.52589416503906	351.3673400878906	956.1473388671875	-104.5294342041016	392.9405822753906	489.7667541503906	-46.41828155517578	341.6967468261719	650.4541015625	-75.87425231933594	354.562255859375	35.66354751586914	77.40636444091797	358.021728515625	243.9559783935547	26.17064094543457	557.392578125	40.94165802001953	-10.04050636291504	520.5341186523438	45.17063522338867	62.63930892944336	441.4752807617188	38.14337158203125	-12.23899173736572	336.5258178710938	37.52106475830078	162.7640533447266	649.0272216796875	523.125732421875	59.95381164550781	603.1522827148438	799.3856201171875	128.5360260009766	558.029541015625	83.33181762695312	232.0356903076172	639.798828125	380.4851989746094	85.28849792480469	685.4525146484375	59.92658233642578	57.75417327880859	611.8363647460938	57.30479049682617	69.55906677246094	663.7508544921875	64.29904174804688	159.7095336914062	480.3103332519531	76.69440460205078	231.2271423339844	
325	3.24	373.6104431152344	998.1094970703125	190.8499298095703	275.0492248535156	1004.333923339844	100.0250625610352	326.4945983886719	1101.416381835938	137.6245269775391	482.8290405273438	1287.980712890625	-44.39329147338867	322.1852111816406	1226.885986328125	141.3229370117188	369.4686279296875	1500.485473632812	113.5182418823242	473.0777893066406	1400.078491210938	-28.82594108581543	387.0429992675781	1374.50390625	221.2821350097656	276.0820007324219	1449.575927734375	79.09537506103516	276.1679077148438	1475.724365234375	-48.25432968139648	206.8407440185547	1352.840209960938	-96.91020202636719	202.1142425537109	1137.62744140625	-145.052001953125	186.2344818115234	1115.46044921875	-47.0401725769043	332.4505615234375	927.3606567382812	-225.7529449462891	254.0640411376953	892.7813720703125	-242.7393951416016	222.3499755859375	1059.531127929688	-180.5742797851562	358.1406860351562	763.8216552734375	-248.8244934082031	276.2908630371094	837.1686401367188	-255.5192565917969	340.6881103515625	856.8505859375	-265.7390747070312	524.7745361328125	1459.7314453125	168.0383453369141	564.6642456054688	1394.1328125	224.0457000732422	606.3201293945312	1106.24755859375	250.2672424316406	551.701171875	1085.028198242188	274.9858093261719	678.0767211914062	907.1517333984375	99.88209533691406	699.4827270507812	878.2820434570312	173.8354339599609	622.2280883789062	1052.180908203125	242.3370666503906	697.0919799804688	738.880859375	71.10475158691406	715.4514770507812	821.4884643554688	76.75798797607422	715.2818603515625	807.8991088867188	149.4295959472656	482.454833984375	1680.238525390625	90.76658630371094	456.8064575195312	1698.621704101562	-114.197135925293	566.3719482421875	1697.260498046875	-20.17056655883789	361.056884765625	1680.185180664062	-22.84025955200195	266.1846923828125	925.9273071289062	-83.26802825927734	550.8546142578125	935.60546875	173.2864990234375	561.5136108398438	970.5689086914062	72.84719848632812	354.9829406738281	956.04443359375	-107.8376007080078	394.828857421875	489.3251342773438	-47.90938186645508	344.519775390625	650.2197265625	-77.82939147949219	354.5907592773438	35.73346710205078	77.42579650878906	358.9330749511719	243.9495239257812	25.53221893310547	557.3967895507812	40.85636138916016	-10.01614284515381	520.5953369140625	45.12526702880859	62.65911865234375	441.4468688964844	38.1288948059082	-12.20260047912598	336.4928283691406	37.64441680908203	162.7599182128906	655.9361572265625	524.6582641601562	50.97369384765625	608.7025146484375	799.82470703125	122.5104064941406	578.3380126953125	78.0703125	211.7835998535156	650.2069091796875	381.0955810546875	72.61301422119141	702.3084106445312	62.05202102661133	34.07617568969727	629.014892578125	57.62706756591797	47.4901008605957	682.7782592773438	63.24819564819336	136.6085357666016	500.6885986328125	69.74953460693359	212.4171905517578	
326	3.25	379.35693359375	997.8150634765625	187.5115661621094	280.2154235839844	1004.116149902344	97.27620697021484	331.6820373535156	1101.421630859375	134.7717742919922	487.1187438964844	1287.700805664062	-48.81779861450195	327.6640319824219	1226.946655273438	138.178955078125	374.9229431152344	1500.40234375	109.4278259277344	477.6007385253906	1399.821899414062	-33.4129524230957	393.1529846191406	1374.63720703125	217.3408508300781	281.2595520019531	1449.536743164062	75.67512512207031	280.6502380371094	1475.51513671875	-51.73535919189453	210.9091186523438	1352.707641601562	-99.89265441894531	205.8145294189453	1137.575073242188	-148.0538177490234	190.32568359375	1115.208374023438	-49.99595642089844	336.4609069824219	927.9876098632812	-229.8675842285156	258.0777587890625	893.256591796875	-246.6705780029297	226.119140625	1059.669921875	-183.8526153564453	362.4912719726562	764.6163330078125	-253.6308135986328	280.3951721191406	837.7655639648438	-259.7396240234375	344.7079772949219	857.6199951171875	-270.1065368652344	530.5227661132812	1459.71533203125	163.0870819091797	570.82666015625	1394.162353515625	218.8115234375	612.7689208984375	1106.326904296875	244.9502410888672	558.2891845703125	1085.096801757812	270.0466918945312	683.5022583007812	906.8232421875	94.69783782958984	705.4674072265625	878.1907958984375	168.5059814453125	628.5994262695312	1052.248291015625	237.0678863525391	702.315673828125	738.4514770507812	66.25404357910156	720.7075805664062	821.0620727539062	71.53593444824219	721.0737915039062	807.7276000976562	144.2231597900391	487.5146789550781	1680.008911132812	86.20967864990234	461.1048583984375	1698.567749023438	-118.6835861206055	571.0140991210938	1697.155639648438	-25.05539703369141	365.7014465332031	1679.974975585938	-26.92803382873535	270.0289001464844	925.8116455078125	-85.93218994140625	556.6481323242188	935.6131591796875	168.65869140625	566.3475952148438	970.6589965820312	68.2254638671875	358.7099609375	955.904052734375	-111.1858596801758	396.7971801757812	488.8669128417969	-49.47141647338867	347.4366149902344	649.9656982421875	-79.86308288574219	354.6168823242188	35.81558227539062	77.44242095947266	359.8750915527344	243.9377593994141	24.85087966918945	557.4064331054688	40.76336669921875	-9.990469932556152	520.6553344726562	45.08227157592773	62.67283248901367	441.4244079589844	38.1213264465332	-12.18219661712646	336.4620361328125	37.77813720703125	162.7550048828125	662.6199951171875	526.052001953125	42.15747451782227	614.0939331054688	800.1609497070312	116.5147476196289	597.6709594726562	73.39617156982422	191.0852203369141	660.1824340820312	381.7395935058594	59.89775848388672	718.0690307617188	64.33829498291016	10.26812171936035	645.1260986328125	58.29206848144531	25.2225513458252	700.7144165039062	62.58901596069336	113.2309341430664	520.1466064453125	63.51799392700195	193.0254669189453	
327	3.26	385.0458679199219	997.4805297851562	184.1075286865234	285.3833923339844	1003.859924316406	94.41503143310547	336.8539733886719	1101.385131835938	131.8678894042969	491.4334411621094	1287.378173828125	-53.24762725830078	333.1406860351562	1226.945678710938	134.962158203125	380.3729553222656	1500.26416015625	105.3229904174805	482.1327514648438	1399.523803710938	-38.00082397460938	399.255615234375	1374.705688476562	213.3805389404297	286.4487609863281	1449.42919921875	72.24718475341797	285.1410217285156	1475.239990234375	-55.23238372802734	214.9815368652344	1352.497436523438	-102.8519592285156	209.4696350097656	1137.419921875	-150.9288940429688	194.4219055175781	1114.8974609375	-52.82201385498047	340.3563537597656	928.4370727539062	-233.8184509277344	261.9459228515625	893.5745239257812	-250.3771667480469	229.8282012939453	1059.684692382812	-186.9854736328125	366.6475219726562	765.19384765625	-258.1404418945312	284.3109130859375	838.188720703125	-263.687744140625	348.5795288085938	858.1688842773438	-274.2567443847656	536.2625732421875	1459.642944335938	158.1292877197266	576.9632568359375	1394.1298828125	213.5819702148438	619.16748046875	1106.341674804688	239.6501159667969	564.8494262695312	1085.119018554688	265.1311645507812	688.8797607421875	906.3410034179688	89.62088775634766	711.3695678710938	877.9801635742188	163.3160247802734	634.9164428710938	1052.245727539062	231.8359832763672	707.4366455078125	737.83935546875	61.62359619140625	725.8587036132812	820.4375610351562	66.517578125	726.7725219726562	807.415283203125	139.2020263671875	492.5501708984375	1679.733520507812	81.65422058105469	465.3762512207031	1698.460327148438	-123.1546249389648	575.6358032226562	1697.0126953125	-29.93548774719238	370.3254699707031	1679.723510742188	-31.0118350982666	273.9405517578125	925.6676025390625	-88.70291900634766	562.3809814453125	935.5460205078125	164.0702972412109	571.1919555664062	970.6666870117188	63.64975738525391	362.5368347167969	955.7191162109375	-114.5816345214844	398.8329772949219	488.3888854980469	-51.1104621887207	350.4339294433594	649.6902465820312	-81.97885131835938	354.6423645019531	35.90632247924805	77.45497894287109	360.8290100097656	243.9094543457031	24.13041877746582	557.4286499023438	40.67463684082031	-9.977397918701172	520.7138061523438	45.04545211791992	62.67586517333984	441.412841796875	38.12101364135742	-12.18427085876465	336.4365844726562	37.9267692565918	162.7463073730469	669.1016845703125	527.2998046875	33.53186798095703	619.366943359375	800.4082641601562	110.5619354248047	615.9832763671875	69.26435089111328	169.9944458007812	669.7367553710938	382.4101257324219	47.20301055908203	732.74365234375	66.71051025390625	-13.62295246124268	660.1705932617188	59.25797653198242	2.793041706085205	717.5281982421875	62.2380485534668	89.63813018798828	538.6234130859375	57.99423217773438	173.120361328125	
